<svg class="svg-icon" style="width: 1em; height: 1em;vertical-align: middle;fill: currentColor;overflow: hidden;" viewBox="0 0 1024 1024" version="1.1" xmlns="http://www.w3.org/2000/svg"><path d="M886.8 353.6c-20.5-48.4-49.8-92-87.2-129.3-37.4-37.4-80.9-66.7-129.3-87.2-50.2-21.2-103.5-32-158.4-32s-108.2 10.8-158.4 32c-48.4 20.5-92 49.8-129.3 87.2-37.4 37.4-66.7 80.9-87.2 129.3-21.2 50.2-32 103.5-32 158.4s10.8 108.2 32 158.4c20.5 48.4 49.8 92 87.2 129.3 37.4 37.4 80.9 66.7 129.3 87.2 50.2 21.2 103.5 32 158.4 32s108.2-10.8 158.4-32c48.4-20.5 92-49.8 129.3-87.2 37.4-37.4 66.7-80.9 87.2-129.3 21.2-50.2 32-103.5 32-158.4s-10.7-108.2-32-158.4zM713.9 543.3l21.2 43.8-38.9 33.6 2.8 13.2c3.2 15.4 6.6 33.5 8.2 44.2-3 2.7-6.9 6.3-12.1 11-7.5 6.8-20.6 18.7-31.8 28.6-2-8.2-4.3-19.3-7-34.3-4.4-25-7.4-47.8-7.4-48.1l-0.4-3.4-0.7-1.5-19.2-70.8-49.1 8.8-27.6-23.3 22.6-36.7-4.7-48.8c8.8-8.6 17.7-16.9 21.1-19.5 11.8-6.3 13.8-19.9 14.8-26.6 0.8-5.4 1.5-12.6 2-21.4 0.5-7.3 0.7-14.4 0.9-19.8l38.1-40.5 143.8-49.3c42.8 51.9 71.4 115.8 79.9 185.9L752.9 472l-39 71.3z m29.8 163.9c-0.2 0.2-0.5 0.3-0.6 0.4 0.2-0.1 0.4-0.2 0.6-0.4zM232.6 284c1.3 3.4 2.7 7.1 4 10.5 8.9 24 17.3 46.7 34.4 55.8 10 5.3 46 19.8 73.4 30.6-8.3 8.9-18 19.5-27.7 30.7-43.9 50.7-53.7 73-52 89.3-3.9 3.2-12.7 7.2-22.4 10.5l-41.9-67-33.2-38.5c13.8-45.1 36.3-86.3 65.4-121.9z m117 550.2l-2.7-68.1 20.1-78-23.3-54.3 4.8-11.7 39.4 14.4 71.8 51.2-53 36.9-40.2 117.5c-5.8-2.5-11.4-5.1-16.9-7.9zM512 872.8c-35.6 0-69.9-5.2-102.4-14.8l35.7-104.2 94.2-65.6-130-92.7-86.6-31.6-29.2 70.3 24.7 57.7-17.9 69.3 1.8 44.4C210.9 740.1 151.2 632.9 151.2 512c0-17 1.2-33.8 3.5-50.2l8.5 9.9 57.6 92.1 15.7-3.3c0.5-0.1 12.5-2.6 26-7.6 21.2-7.8 35.1-17.2 42.6-29 5.1-8.1 7.1-17.1 5.7-26.1 1.5-4.1 9-20.3 45.2-61.4 22.6-25.7 44.9-48 45.1-48.2l25-25-33-12.7c-32.4-12.5-86.7-34-99.3-40.3-4.1-4.9-10.5-22.3-14-31.8-4.3-11.5-8.3-22.5-13.1-30.8 64.4-59.9 150.7-96.6 245.5-96.6 93.8 0 179.3 35.9 243.5 94.8l-134.6 46.1-58 61.6-0.2 8.9c-0.3 14.9-1.3 33.9-2.5 43.2-6 4.9-15.3 13.5-30.7 28.9l-7.7 7.7 5.3 55.1-35.4 57.3 74.4 62.7 28.9-5.2 8.3 30.6c0.8 6.2 3.9 28.6 8.3 52.6 10.4 57 18.1 68.6 24.6 75.1 3.8 3.8 9.7 6.9 16.6 6.9 3.9 0 8.2-1 12.7-3.3 2.2-1.2 4.6-2.7 7.6-4.9 4-3 9.2-7.2 16-13 11.7-10 25.7-22.8 37-33.1 7.3-6.7 15.6-14.2 18-16.1 5.1-3.6 10.6-10.3 10.1-22.7-0.1-2.4-0.4-5.3-0.9-9-0.7-5.3-1.9-12.5-3.5-21.3-1-5.7-2.1-11.3-3.1-16.1l45.2-39.1-26.2-54.2 15-27.4 92.2-2.7c-1.6 197.9-163 358.4-361.1 358.4z"  /></svg>